<svg width="17" height="17" viewBox="0 0 17 17" fill="none" xmlns="http://www.w3.org/2000/svg">
<g id="Group">
<path id="Vector" d="M13.9999 5C15.1045 5 15.9999 4.10457 15.9999 3C15.9999 1.89543 15.1045 1 13.9999 1C12.8954 1 11.9999 1.89543 11.9999 3C11.9999 4.10457 12.8954 5 13.9999 5Z" stroke="#6B7280" stroke-width="1.2"/>
<path id="Vector_2" d="M15.8 7.00001V11.2C15.8 12.4731 15.2943 13.694 14.3941 14.5941C13.4939 15.4943 12.273 16 11 16H5.8C4.52696 16 3.30606 15.4943 2.40589 14.5941C1.50571 13.694 1 12.4731 1 11.2V6.00001C1 4.72697 1.50571 3.50607 2.40589 2.6059C3.30606 1.70573 4.52696 1.20001 5.8 1.20001H10" stroke="#6B7280" stroke-linecap="round"/>
<path id="Vector_3" d="M5.4209 11.8288V8.31837M8.4849 11.8288V6.01517M11.3793 11.8288V7.42077" stroke="#6B7280" stroke-linecap="round"/>
</g>
</svg>
