<svg width="17" height="17" viewBox="0 0 17 17" fill="none" xmlns="http://www.w3.org/2000/svg">
<g id="Group">
<path id="Vector" d="M16 8.49996C16.0014 9.48468 15.8084 10.46 15.4321 11.37C15.0557 12.2799 14.5034 13.1066 13.8068 13.8026C13.1099 14.4995 12.2826 15.0523 11.372 15.4293C10.4615 15.8064 9.48556 16.0002 8.50004 15.9999C7.43931 16.0025 6.39025 15.7786 5.42303 15.3432L2.28764 15.8069C2.13197 15.8324 1.97244 15.8194 1.82292 15.7691C1.67339 15.7189 1.5384 15.6329 1.42965 15.5187C1.3209 15.4044 1.2417 15.2653 1.19891 15.1135C1.15613 14.9617 1.15105 14.8017 1.18413 14.6475L1.61954 11.4667C1.20638 10.5325 0.995285 9.52146 1.00008 8.49996C0.998732 7.51525 1.19177 6.53995 1.56814 5.63C1.9445 4.72005 2.49678 3.89335 3.19331 3.19728C3.89011 2.50033 4.71744 1.94754 5.628 1.57052C6.53856 1.19349 7.5145 0.999625 8.50004 1C10.4903 1.00013 12.399 1.79046 13.8068 3.19728C14.503 3.89356 15.0551 4.72031 15.4314 5.63021C15.8078 6.54011 16.001 7.5153 16 8.49996Z" stroke="#E8E8E8" stroke-linecap="round" stroke-linejoin="round"/>
<path id="Vector_2" d="M8.50061 8.99509C8.63189 8.99509 8.7578 8.94294 8.85063 8.85011C8.94346 8.75728 8.99561 8.63138 8.99561 8.50009C8.99561 8.36881 8.94346 8.24291 8.85063 8.15008C8.7578 8.05725 8.63189 8.0051 8.50061 8.0051C8.36933 8.0051 8.24343 8.05725 8.1506 8.15008C8.05777 8.24291 8.00562 8.36881 8.00562 8.50009C8.00562 8.63138 8.05777 8.75728 8.1506 8.85011C8.24343 8.94294 8.36933 8.99509 8.50061 8.99509ZM11.9701 8.99509C12.1013 8.99509 12.2272 8.94294 12.3201 8.85011C12.4129 8.75728 12.465 8.63138 12.465 8.50009C12.465 8.36881 12.4129 8.24291 12.3201 8.15008C12.2272 8.05725 12.1013 8.0051 11.9701 8.0051C11.8388 8.0051 11.7129 8.05725 11.62 8.15008C11.5272 8.24291 11.4751 8.36881 11.4751 8.50009C11.4751 8.63138 11.5272 8.75728 11.62 8.85011C11.7129 8.94294 11.8388 8.99509 11.9701 8.99509ZM5.03117 8.99509C5.09618 8.99514 5.16056 8.98239 5.22063 8.95757C5.28071 8.93274 5.33531 8.89632 5.38131 8.8504C5.42731 8.80447 5.46382 8.74993 5.48874 8.6899C5.51367 8.62986 5.52652 8.5655 5.52658 8.5005C5.52663 8.4355 5.51388 8.37112 5.48905 8.31104C5.46423 8.25096 5.42781 8.19637 5.38188 8.15036C5.33595 8.10436 5.28142 8.06786 5.22138 8.04293C5.16135 8.01801 5.09699 8.00515 5.03198 8.0051C4.9007 8.0051 4.7748 8.05725 4.68197 8.15008C4.58914 8.24291 4.53699 8.36881 4.53699 8.50009C4.53699 8.63138 4.58914 8.75728 4.68197 8.85011C4.7748 8.94294 4.89989 8.99509 5.03117 8.99509Z" stroke="#E8E8E8" stroke-linecap="round" stroke-linejoin="round"/>
</g>
</svg>
