<svg width="70" height="70" viewBox="0 0 70 70" fill="none" xmlns="http://www.w3.org/2000/svg">
<g clip-path="url(#clip0_440_38)">
<path fill-rule="evenodd" clip-rule="evenodd" d="M17.5 0C12.8587 0 8.40752 1.84375 5.12563 5.12563C1.84375 8.40752 0 12.8587 0 17.5L0 52.5C0 57.1413 1.84375 61.5925 5.12563 64.8744C8.40752 68.1563 12.8587 70 17.5 70H52.5C57.1413 70 61.5925 68.1563 64.8744 64.8744C68.1563 61.5925 70 57.1413 70 52.5V17.5C70 12.8587 68.1563 8.40752 64.8744 5.12563C61.5925 1.84375 57.1413 0 52.5 0L17.5 0ZM47.0312 8.75C47.9015 8.75 48.7361 9.0957 49.3514 9.71106C49.9668 10.3264 50.3125 11.161 50.3125 12.0312V19.4294C50.4032 19.5106 50.4894 19.5968 50.5706 19.6875H57.9688C58.839 19.6875 59.6736 20.0332 60.2889 20.6486C60.9043 21.2639 61.25 22.0985 61.25 22.9688C61.25 23.839 60.9043 24.6736 60.2889 25.2889C59.6736 25.9043 58.839 26.25 57.9688 26.25H48.3875L41.3437 33.2981C41.6032 34.2709 41.6356 35.2903 41.4385 36.2777C41.2414 37.265 40.82 38.1938 40.207 38.9925C39.594 39.7911 38.8056 40.4382 37.9028 40.8838C37 41.3294 36.0068 41.5616 35 41.5625C34.0676 41.5594 33.1465 41.3577 32.2982 40.9707C31.4499 40.5837 30.6937 40.0204 30.0802 39.3183C29.4666 38.6162 29.0098 37.7914 28.74 36.8988C28.4702 36.0063 28.3937 35.0665 28.5156 34.1421C28.6375 33.2177 28.955 32.3299 29.4469 31.5378C29.9388 30.7457 30.5939 30.0675 31.3685 29.5484C32.1431 29.0294 33.0194 28.6813 33.939 28.5275C34.8587 28.3736 35.8005 28.4175 36.7019 28.6563L43.75 21.6125V12.0312C43.75 11.161 44.0957 10.3264 44.7111 9.71106C45.3264 9.0957 46.161 8.75 47.0312 8.75ZM37.555 16.2925C37.572 16.7231 37.504 17.1529 37.3549 17.5572C37.2058 17.9616 36.9785 18.3326 36.686 18.649C36.3934 18.9655 36.0414 19.2213 35.6501 19.4017C35.2587 19.5822 34.8356 19.6837 34.405 19.7006C31.4289 19.816 28.5509 20.7968 26.1237 22.5229C23.6965 24.249 21.8254 26.6455 20.7395 29.4189C19.6536 32.1922 19.4001 35.2221 20.01 38.1374C20.62 41.0526 22.0668 43.7267 24.1734 45.8322C26.2801 47.9376 28.955 49.383 31.8706 49.9914C34.7862 50.5997 37.8159 50.3445 40.5887 49.2571C43.3614 48.1697 45.7569 46.2972 47.4817 43.8691C49.2065 41.4409 50.1857 38.5625 50.2994 35.5862C50.333 34.716 50.711 33.8948 51.3501 33.3032C51.9893 32.7117 52.8373 32.3982 53.7075 32.4319C54.5777 32.4655 55.399 32.8435 55.9905 33.4826C56.5821 34.1218 56.8955 34.9698 56.8619 35.84C56.6987 40.0913 55.2993 44.2028 52.8351 47.671C50.3709 51.1392 46.9488 53.8135 42.9879 55.3665C39.027 56.9195 34.6992 57.2837 30.5344 56.4146C26.3697 55.5455 22.5487 53.4808 19.5395 50.4733C16.5302 47.4658 14.4633 43.6461 13.5918 39.4818C12.7203 35.3176 13.0821 30.9896 14.6328 27.0278C16.1835 23.066 18.8558 19.6423 22.3226 17.1761C25.7893 14.7099 29.9 13.3082 34.1513 13.1425C35.0202 13.1094 35.8668 13.4225 36.505 14.0131C37.1432 14.6038 37.5208 15.4236 37.555 16.2925Z" fill="#26ADEB"/>
</g>
<defs>
<clipPath id="clip0_440_38">
<rect width="70" height="70" fill="white"/>
</clipPath>
</defs>
</svg>
