<svg width="35" height="35" viewBox="0 0 35 35" fill="none" xmlns="http://www.w3.org/2000/svg">
<g clip-path="url(#clip0_443_44)">
<path fill-rule="evenodd" clip-rule="evenodd" d="M8.75 0C6.42936 0 4.20376 0.921873 2.56282 2.56282C0.921873 4.20376 0 6.42936 0 8.75L0 26.25C0 28.5706 0.921873 30.7962 2.56282 32.4372C4.20376 34.0781 6.42936 35 8.75 35H26.25C28.5706 35 30.7962 34.0781 32.4372 32.4372C34.0781 30.7962 35 28.5706 35 26.25V8.75C35 6.42936 34.0781 4.20376 32.4372 2.56282C30.7962 0.921873 28.5706 0 26.25 0L8.75 0ZM23.5156 4.375C23.9507 4.375 24.368 4.54785 24.6757 4.85553C24.9834 5.1632 25.1562 5.5805 25.1562 6.01562V9.71469C25.2016 9.7553 25.2447 9.79839 25.2853 9.84375H28.9844C29.4195 9.84375 29.8368 10.0166 30.1445 10.3243C30.4521 10.632 30.625 11.0493 30.625 11.4844C30.625 11.9195 30.4521 12.3368 30.1445 12.6445C29.8368 12.9521 29.4195 13.125 28.9844 13.125H24.1938L20.6719 16.6491C20.8016 17.1355 20.8178 17.6452 20.7192 18.1388C20.6207 18.6325 20.41 19.0969 20.1035 19.4962C19.797 19.8956 19.4028 20.2191 18.9514 20.4419C18.5 20.6647 18.0034 20.7808 17.5 20.7812C17.0338 20.7797 16.5733 20.6788 16.1491 20.4853C15.7249 20.2919 15.3469 20.0102 15.0401 19.6591C14.7333 19.3081 14.5049 18.8957 14.37 18.4494C14.2351 18.0032 14.1968 17.5333 14.2578 17.0711C14.3187 16.6088 14.4775 16.1649 14.7235 15.7689C14.9694 15.3728 15.297 15.0337 15.6842 14.7742C16.0715 14.5147 16.5097 14.3407 16.9695 14.2637C17.4293 14.1868 17.9003 14.2088 18.3509 14.3281L21.875 10.8063V6.01562C21.875 5.5805 22.0479 5.1632 22.3555 4.85553C22.6632 4.54785 23.0805 4.375 23.5156 4.375ZM18.7775 8.14625C18.786 8.36156 18.752 8.57644 18.6774 8.77861C18.6029 8.98078 18.4892 9.16628 18.343 9.32452C18.1967 9.48277 18.0207 9.61065 17.825 9.70086C17.6294 9.79108 17.4178 9.84186 17.2025 9.85031C15.7144 9.90799 14.2755 10.3984 13.0619 11.2614C11.8483 12.1245 10.9127 13.3227 10.3698 14.7094C9.82682 16.0961 9.70006 17.611 10.005 19.0687C10.31 20.5263 11.0334 21.8634 12.0867 22.9161C13.14 23.9688 14.4775 24.6915 15.9353 24.9957C17.3931 25.2998 18.9079 25.1722 20.2943 24.6285C21.6807 24.0848 22.8785 23.1486 23.7408 21.9345C24.6032 20.7205 25.0928 19.2812 25.1497 17.7931C25.1665 17.358 25.3555 16.9474 25.6751 16.6516C25.9946 16.3558 26.4186 16.1991 26.8538 16.2159C27.2889 16.2328 27.6995 16.4217 27.9953 16.7413C28.291 17.0609 28.4478 17.4849 28.4309 17.92C28.3493 20.0457 27.6497 22.1014 26.4175 23.8355C25.1854 25.5696 23.4744 26.9067 21.4939 27.6832C19.5135 28.4597 17.3496 28.6419 15.2672 28.2073C13.1848 27.7728 11.2744 26.7404 9.76974 25.2367C8.26512 23.7329 7.23167 21.823 6.79592 19.7409C6.36017 17.6588 6.54104 15.4948 7.31639 13.5139C8.09174 11.533 9.42791 9.82117 11.1613 8.58806C12.8947 7.35495 14.95 6.65408 17.0756 6.57125C17.5101 6.55468 17.9334 6.71125 18.2525 7.00657C18.5716 7.30189 18.7604 7.7118 18.7775 8.14625Z" fill="#26ADEB"/>
</g>
<defs>
<clipPath id="clip0_443_44">
<rect width="35" height="35" fill="white"/>
</clipPath>
</defs>
</svg>
