<svg width="51" height="51" viewBox="0 0 51 51" fill="none" xmlns="http://www.w3.org/2000/svg">
<g clip-path="url(#clip0_444_50)">
<path fill-rule="evenodd" clip-rule="evenodd" d="M12.75 0C9.36849 0 6.12548 1.3433 3.73439 3.73439C1.3433 6.12548 0 9.36849 0 12.75L0 38.25C0 41.6315 1.3433 44.8745 3.73439 47.2656C6.12548 49.6567 9.36849 51 12.75 51H38.25C41.6315 51 44.8745 49.6567 47.2656 47.2656C49.6567 44.8745 51 41.6315 51 38.25V12.75C51 9.36849 49.6567 6.12548 47.2656 3.73439C44.8745 1.3433 41.6315 0 38.25 0L12.75 0ZM34.2656 6.375C34.8997 6.375 35.5077 6.62687 35.9561 7.0752C36.4044 7.52353 36.6562 8.13159 36.6562 8.76562V14.1557C36.7224 14.2149 36.7851 14.2776 36.8443 14.3438H42.2344C42.8684 14.3438 43.4765 14.5956 43.9248 15.0439C44.3731 15.4923 44.625 16.1003 44.625 16.7344C44.625 17.3684 44.3731 17.9765 43.9248 18.4248C43.4765 18.8731 42.8684 19.125 42.2344 19.125H35.2538L30.1219 24.2601C30.3109 24.9688 30.3345 25.7115 30.1909 26.4309C30.0473 27.1502 29.7403 27.8269 29.2937 28.4088C28.847 28.9907 28.2727 29.4621 27.6149 29.7868C26.9571 30.1115 26.2335 30.2806 25.5 30.2812C24.8207 30.279 24.1496 30.132 23.5315 29.8501C22.9135 29.5681 22.3626 29.1577 21.9156 28.6462C21.4686 28.1346 21.1357 27.5337 20.9391 26.8834C20.7426 26.2332 20.6868 25.5485 20.7756 24.875C20.8645 24.2015 21.0958 23.5546 21.4542 22.9775C21.8126 22.4004 22.2898 21.9063 22.8542 21.5281C23.4185 21.15 24.057 20.8964 24.727 20.7843C25.397 20.6722 26.0832 20.7042 26.7399 20.8781L31.875 15.7463V8.76562C31.875 8.13159 32.1269 7.52353 32.5752 7.0752C33.0235 6.62687 33.6316 6.375 34.2656 6.375ZM27.3615 11.8702C27.3739 12.184 27.3243 12.4971 27.2157 12.7917C27.1071 13.0863 26.9415 13.3566 26.7283 13.5872C26.5152 13.8177 26.2588 14.0041 25.9736 14.1355C25.6885 14.267 25.3802 14.341 25.0665 14.3533C22.8982 14.4374 20.8014 15.1519 19.033 16.4095C17.2646 17.6671 15.9014 19.4131 15.1102 21.4337C14.3191 23.4543 14.1344 25.6618 14.5787 27.7858C15.0231 29.9098 16.0773 31.8581 17.6121 33.392C19.1469 34.926 21.0958 35.9791 23.22 36.4223C25.3442 36.8655 27.5516 36.6796 29.5717 35.8873C31.5919 35.095 33.3372 33.7308 34.5938 31.9617C35.8504 30.1927 36.5638 28.0955 36.6467 25.9271C36.6712 25.2931 36.9466 24.6948 37.4122 24.2638C37.8779 23.8328 38.4957 23.6044 39.1298 23.6289C39.7638 23.6535 40.3621 23.9288 40.7931 24.3945C41.2241 24.8602 41.4525 25.478 41.4279 26.112C41.309 29.2094 40.2895 32.2049 38.4941 34.7317C36.6988 37.2585 34.2056 39.207 31.3198 40.3384C28.434 41.4699 25.2808 41.7353 22.2465 41.1021C19.2122 40.4689 16.4284 38.9646 14.2359 36.7734C12.0435 34.5823 10.5376 31.7993 9.90262 28.7653C9.26767 25.7314 9.53123 22.5781 10.661 19.6917C11.7908 16.8052 13.7378 14.3108 16.2636 12.514C18.7894 10.7172 21.7843 9.69594 24.8816 9.57525C25.5147 9.55111 26.1315 9.77926 26.5965 10.2096C27.0615 10.6399 27.3366 11.2372 27.3615 11.8702Z" fill="#26ADEB"/>
</g>
<rect x="0.5" y="0.5" width="50" height="50" rx="24.5" stroke="#ECECEE"/>
<defs>
<clipPath id="clip0_444_50">
<rect width="51" height="51" rx="25" fill="white"/>
</clipPath>
</defs>
</svg>
