<svg width="50" height="50" viewBox="0 0 50 50" fill="none" xmlns="http://www.w3.org/2000/svg">
<g clip-path="url(#clip0_444_52)">
<rect width="50" height="50" rx="25" fill="#131111"/>
<path fill-rule="evenodd" clip-rule="evenodd" d="M12.5 0C9.18479 0 6.00537 1.31696 3.66117 3.66117C1.31696 6.00537 0 9.18479 0 12.5L0 37.5C0 40.8152 1.31696 43.9946 3.66117 46.3388C6.00537 48.683 9.18479 50 12.5 50H37.5C40.8152 50 43.9946 48.683 46.3388 46.3388C48.683 43.9946 50 40.8152 50 37.5V12.5C50 9.18479 48.683 6.00537 46.3388 3.66117C43.9946 1.31696 40.8152 0 37.5 0L12.5 0ZM33.5937 6.25C34.2154 6.25 34.8115 6.49693 35.251 6.93647C35.6906 7.37601 35.9375 7.97215 35.9375 8.59375V13.8781C36.0023 13.9361 36.0639 13.9977 36.1219 14.0625H41.4062C42.0279 14.0625 42.624 14.3094 43.0635 14.749C43.5031 15.1885 43.75 15.7846 43.75 16.4062C43.75 17.0279 43.5031 17.624 43.0635 18.0635C42.624 18.5031 42.0279 18.75 41.4062 18.75H34.5625L29.5312 23.7844C29.7165 24.4792 29.7397 25.2074 29.5989 25.9126C29.4581 26.6179 29.1572 27.2813 28.7193 27.8518C28.2814 28.4222 27.7183 28.8844 27.0734 29.2027C26.4285 29.521 25.7191 29.6869 25 29.6875C24.334 29.6853 23.6761 29.5412 23.0701 29.2648C22.4642 28.9884 21.9241 28.586 21.4859 28.0845C21.0476 27.583 20.7213 26.9938 20.5285 26.3563C20.3358 25.7188 20.2812 25.0475 20.3683 24.3872C20.4553 23.7269 20.6821 23.0928 21.0335 22.527C21.3849 21.9612 21.8528 21.4768 22.4061 21.106C22.9593 20.7353 23.5853 20.4866 24.2422 20.3768C24.899 20.2669 25.5718 20.2982 26.2156 20.4687L31.25 15.4375V8.59375C31.25 7.97215 31.4969 7.37601 31.9365 6.93647C32.376 6.49693 32.9721 6.25 33.5937 6.25ZM26.825 11.6375C26.8371 11.9451 26.7886 12.2521 26.6821 12.5409C26.5755 12.8297 26.4132 13.0947 26.2043 13.3207C25.9953 13.5468 25.7439 13.7295 25.4643 13.8584C25.1848 13.9873 24.8826 14.0598 24.575 14.0719C22.4492 14.1543 20.3935 14.8548 18.6598 16.0878C16.9261 17.3207 15.5896 19.0325 14.8139 21.0135C14.0383 22.9945 13.8572 25.1586 14.2929 27.241C14.7285 29.3233 15.762 31.2334 17.2667 32.7373C18.7715 34.2412 20.6821 35.2736 22.7647 35.7081C24.8473 36.1426 27.0113 35.9604 28.9919 35.1836C30.9725 34.4069 32.6835 33.0694 33.9155 31.335C35.1475 29.6006 35.8469 27.5446 35.9281 25.4187C35.9522 24.7971 36.2221 24.2106 36.6787 23.788C37.1352 23.3655 37.7409 23.1416 38.3625 23.1656C38.9841 23.1897 39.5707 23.4596 39.9932 23.9162C40.4158 24.3727 40.6397 24.9784 40.6156 25.6C40.4991 28.6367 39.4995 31.5735 37.7393 34.0507C35.9792 36.528 33.5349 38.4382 30.7056 39.5475C27.8764 40.6568 24.7851 40.9169 21.8103 40.2962C18.8355 39.6754 16.1062 38.2006 13.9568 36.0524C11.8073 33.9042 10.331 31.1758 9.70845 28.2013C9.08596 25.2268 9.34435 22.1354 10.452 19.3055C11.5596 16.4757 13.4684 14.0302 15.9447 12.2687C18.4209 10.5071 21.3571 9.50582 24.3938 9.3875C25.0144 9.36383 25.6191 9.58751 26.075 10.0094C26.5308 10.4313 26.8006 11.0169 26.825 11.6375Z" fill="white"/>
</g>
<rect x="0.5" y="0.5" width="49" height="49" rx="24.5" stroke="#ECECEE"/>
<defs>
<clipPath id="clip0_444_52">
<rect width="50" height="50" rx="25" fill="white"/>
</clipPath>
</defs>
</svg>
