<svg width="16" height="18" viewBox="0 0 16 18" fill="none" xmlns="http://www.w3.org/2000/svg">
<path d="M8.78639 5.47708C8.59049 3.99416 8.00724 2.65961 7.15622 1.55346C6.95011 1.28592 7.15592 0.894481 7.49142 0.934639C11.3591 1.40111 14.5317 4.57912 14.728 8.73985C14.9126 12.6673 12.1923 16.2523 8.35895 17.1284C5.69918 17.7364 3.11105 16.9991 1.21955 15.4155C0.964152 15.2012 1.10251 14.7805 1.43423 14.7508C1.52225 14.7433 1.61132 14.7333 1.70015 14.7216C6.20961 14.1259 9.38222 9.98743 8.78639 5.47708Z" fill="white"/>
<path fill-rule="evenodd" clip-rule="evenodd" d="M7.52813 0.627898C6.89444 0.552047 6.55468 1.27885 6.9115 1.742C7.73061 2.80673 8.29161 4.09059 8.48012 5.51754C9.05361 9.85877 5.99998 13.8419 1.65969 14.4153C1.57491 14.4265 1.49058 14.4359 1.40786 14.443L1.40725 14.443L1.40664 14.4431C0.812021 14.4964 0.54661 15.2542 1.021 15.6521L1.02123 15.6523C2.98305 17.2949 5.66912 18.0601 8.42778 17.4296C12.4071 16.5201 15.2282 12.8021 15.0366 8.72535L15.0366 8.72529C14.833 4.4088 11.5406 1.11183 7.52841 0.627931L7.52813 0.627898ZM14.4194 8.75435C14.2305 4.74947 11.1776 1.69046 7.45457 1.24136L14.4194 8.75435ZM7.45457 1.24136C7.43575 1.23914 7.42545 1.24298 7.41884 1.24666C7.41055 1.25128 7.40072 1.26018 7.39306 1.2745C7.37762 1.30333 7.3786 1.33591 7.40095 1.36492L7.40108 1.36508C8.28394 2.51262 8.88938 3.89781 9.09266 5.43662C9.71083 10.1161 6.41924 14.4098 1.74061 15.0278C1.64806 15.0401 1.5546 15.0505 1.4616 15.0585C1.4436 15.0602 1.43242 15.0661 1.42413 15.0731C1.4145 15.0812 1.40561 15.0938 1.4005 15.1095C1.39539 15.1252 1.39557 15.1393 1.39815 15.1495C1.40026 15.1578 1.40479 15.1676 1.41809 15.1788C3.23925 16.7034 5.72935 17.4126 8.29011 16.8272C11.9775 15.9845 14.5969 12.5326 14.4194 8.75441" fill="white"/>
</svg>
