<svg fill="none" height="24" viewBox="0 0 24 24" width="24" xmlns="http://www.w3.org/2000/svg"><path clip-rule="evenodd" d="m8.46778 1.25h7.06442c.4398-.00002.8192-.00003 1.1305.02818.3291.02984.6551.09589.9623.27326.342.19748.6261.48152.8236.82356.1773.30721.2434.63317.2732.96235.0115.12649.0183.26421.0223.41265h.3249c.4244-.00001.7787-.00001 1.0698.01897.303.01975.5895.06231.8686.1722.71.27952 1.2719.84144 1.5514 1.55141.1099.27913.1525.56565.1722.86862.019.29115.019.64545.019 1.06985v.02405c0 .0407 0 .08086.0001.12049.0005.65794.001 1.1704-.1571 1.61787-.2294.64958-.6943 1.18944-1.3026 1.51264-.4191.2227-.926.2983-1.5767.3953-.0392.0059-.0789.0118-.1192.0178l-4.0766.6115c-.8318.1248-1.3861.2093-1.797.3249-.3906.1098-.5586.224-.6681.3511-.1292.15-.2165.3602-.2626.8532.1454.0063.2818.0166.407.0334.3555.0478.7312.1602 1.0402.4693.3091.309.4215.6847.4693 1.0402.0434.3228.0434.7196.0433 1.1525v4.0894c.0001.4329.0001.8297-.0433 1.1525-.0478.3555-.1602.7312-.4693 1.0402-.309.3091-.6847.4215-1.0402.4693-.3228.0434-.7196.0434-1.1525.0433h-.0894c-.4329.0001-.8297.0001-1.1525-.0433-.3555-.0478-.7312-.1602-1.04024-.4693-.30902-.309-.42147-.6847-.46926-1.0402-.0434-.3228-.04335-.7196-.0433-1.1524v-4.0895c-.00005-.4329-.0001-.8297.0433-1.1525.04779-.3555.16024-.7312.46926-1.0402.30904-.3091.68474-.4215 1.04024-.4693.1462-.0197.3077-.0304.4808-.0363.0522-.7037.1969-1.3233.6326-1.8292.3751-.4355.8556-.6635 1.3987-.8162.5124-.1441 1.161-.2414 1.9337-.3573l4.1234-.61849c.8281-.12421 1.0534-.1687 1.2145-.25433.2766-.14693.4879-.3923.5921-.68756.0608-.17207.0714-.40149.0714-1.23882 0-.45466-.0004-.7598-.0158-.99632-.015-.2302-.042-.34269-.0711-.4167-.127-.32271-.3825-.57813-.7052-.70518-.074-.02914-.1865-.0561-.4167-.07111-.2365-.01542-.5416-.01579-.9963-.01579h-.3008c-.004.14845-.0108.28617-.0223.41265-.0298.32918-.0959.65514-.2732.96235-.1975.34204-.4816.62608-.8236.82356-.3072.17737-.6332.24342-.9623.27326-.3113.02821-.6907.0282-1.1305.02818h-7.06443c-.43978.00002-.81913.00003-1.13042-.02818-.32918-.02984-.65514-.09589-.96235-.27326-.34204-.19748-.62608-.48152-.82356-.82356-.17737-.30721-.24342-.63317-.27326-.96235-.01251-.13805-.01947-.28948-.02334-.45363-.29382-.10158-.50484-.38066-.50484-.70902s.21102-.60743.50484-.70901c.00387-.16416.01083-.31559.02334-.45364.02984-.32918.09589-.65514.27326-.96235.19748-.34204.48152-.62608.82356-.82356.30721-.17737.63317-.24342.96235-.27326.31129-.02821.69064-.0282 1.13043-.02818zm3.53692 13.5c-.0016 0-.0031 0-.0047 0-.4926 0-.7866.0016-.9973.0299-.0966.013-.145.0283-.1667.0373-.0051.002-.0084.0037-.0103.0047l-.0025.0013-.0013.0025c-.001.0019-.0027.0052-.0047.0103-.009.0217-.0243.0701-.0373.1667-.0283.2107-.0299.5047-.0299.9973v4c0 .4926.0016.7866.0299.9973.013.0966.0283.145.0373.1667.002.0051.0037.0084.0047.0103l.0013.0025.0025.0013c.0019.0011.0052.0027.0103.0047.0217.009.0701.0243.1667.0373.2107.0283.5047.0299.9973.0299s.7866-.0016.9973-.0299c.0966-.013.145-.0283.1667-.0373.0036-.0014.0063-.0027.0083-.0036.0008-.0004.0015-.0008.002-.0011l.0025-.0013.0013-.0025c.001-.0019.0027-.0052.0047-.0103.009-.0217.0243-.0701.0373-.1667.0283-.2107.0299-.5047.0299-.9973v-4c0-.4926-.0016-.7866-.0299-.9973-.013-.0966-.0283-.145-.0373-.1667-.002-.0051-.0037-.0084-.0047-.0103l-.0013-.0025-.0025-.0013c-.0012-.0007-.0031-.0016-.0056-.0028-.0014-.0006-.0029-.0012-.0047-.0019-.0217-.009-.0701-.0243-.1667-.0373-.21-.0282-.5028-.0299-.9926-.0299zm-4.53195-11.97794c-.22515.02041-.30689.05483-.34775.07842-.11401.06583-.20869.16051-.27452.27452-.02359.04086-.05802.1226-.07842.34775-.02134.23545-.02206.54614-.02206 1.02725s.00072.7918.02206 1.02726c.0204.22514.05483.30688.07842.34774.06583.11402.16051.20869.27452.27452.04086.02359.1226.05802.34775.07842.23545.02134.54614.02206 1.02725.02206h7c.4811 0 .7918-.00072 1.0273-.02206.2251-.0204.3068-.05483.3477-.07842.114-.06583.2087-.1605.2745-.27452.0236-.04086.058-.1226.0784-.34774.0214-.23546.0221-.54615.0221-1.02726s-.0007-.7918-.0221-1.02725c-.0204-.22515-.0548-.30688-.0784-.34775-.0658-.11401-.1605-.20869-.2745-.27452-.0409-.02359-.1226-.05801-.3477-.07842-.2355-.02134-.5462-.02206-1.0273-.02206h-7c-.48111 0-.7918.00072-1.02725.02206zm3.35045 12.05114c.0004-.0002.0004-.0004 0 0-.0004.0005-.0002.0004 0 0z" fill="#1c274c" fill-rule="evenodd"/></svg>