<svg width="15" height="15" viewBox="0 0 15 15" fill="none" xmlns="http://www.w3.org/2000/svg">
<g id="Frame">
<path id="Vector" d="M11.25 1.25H4.375C3.68562 1.25 3.125 1.81062 3.125 2.5V4.375C3.125 5.06437 3.68562 5.625 4.375 5.625H11.25C11.9394 5.625 12.5 5.06437 12.5 4.375V2.5C12.5 1.81062 11.9394 1.25 11.25 1.25Z" fill="#6B7280"/>
<path id="Vector_2" d="M8.125 9.375V8.125C8.125 7.43563 7.56437 6.875 6.875 6.875H2.5V3.125C1.81062 3.125 1.25 3.68562 1.25 4.375V6.875C1.25 7.56437 1.81062 8.125 2.5 8.125H6.875V9.375C6.70924 9.375 6.55027 9.44085 6.43306 9.55806C6.31585 9.67527 6.25 9.83424 6.25 10V13.125C6.25 13.2908 6.31585 13.4497 6.43306 13.5669C6.55027 13.6842 6.70924 13.75 6.875 13.75H8.125C8.29076 13.75 8.44973 13.6842 8.56694 13.5669C8.68415 13.4497 8.75 13.2908 8.75 13.125V10C8.75 9.83424 8.68415 9.67527 8.56694 9.55806C8.44973 9.44085 8.29076 9.375 8.125 9.375Z" fill="#6B7280"/>
</g>
</svg>
