<svg width="20" height="20" viewBox="0 0 20 20" fill="none" xmlns="http://www.w3.org/2000/svg">
<g id="Frame">
<path id="Vector" d="M17.798 12.0504L16.8084 11.0054C16.9348 10.2438 16.9187 9.46534 16.7609 8.7096L17.7267 7.6646C17.8017 7.58106 17.8518 7.47823 17.8714 7.3677C17.891 7.25718 17.8793 7.14339 17.8376 7.03918C17.437 6.04923 16.8452 5.148 16.0959 4.3871C16.0227 4.31388 15.9313 4.26139 15.8312 4.23497C15.7311 4.20855 15.6257 4.20914 15.5259 4.23668L14.0692 4.60876C13.6207 4.28627 13.1341 4.02037 12.6205 3.8171L12.2642 2.45543C12.2378 2.34499 12.1793 2.24479 12.0963 2.16735C12.0132 2.08991 11.9092 2.03867 11.7971 2.02001C11.3038 1.92744 10.8028 1.88237 10.3009 1.88543C9.67285 1.88806 9.0477 1.97053 8.44047 2.13085C8.33913 2.15632 8.2466 2.20879 8.17272 2.28268C8.09883 2.35656 8.04636 2.44909 8.02089 2.55043L7.64089 3.95168C7.21607 4.14031 6.81267 4.37387 6.43755 4.64835L4.99672 4.2921C4.89556 4.26565 4.78912 4.26715 4.68874 4.29642C4.58836 4.3257 4.4978 4.38166 4.42672 4.45835C3.63962 5.27603 3.03755 6.2534 2.6613 7.32418C2.62482 7.42768 2.61733 7.53918 2.63966 7.64663C2.66199 7.75408 2.71327 7.85337 2.78797 7.93376L3.78547 8.97085C3.73496 9.30365 3.70851 9.63966 3.7063 9.97626C3.7063 10.2138 3.7063 10.4513 3.74589 10.6888L2.7088 11.8446C2.63901 11.9214 2.59059 12.0153 2.56836 12.1167C2.54614 12.2181 2.55089 12.3235 2.58214 12.4225C2.90747 13.4693 3.44663 14.4371 4.16547 15.2646C4.23777 15.3496 4.33256 15.4125 4.43898 15.4461C4.5454 15.4797 4.65913 15.4827 4.76714 15.4546L6.1288 15.1063C6.60526 15.5077 7.1389 15.8359 7.71214 16.08L8.10797 17.4971C8.13846 17.5998 8.1955 17.6927 8.27334 17.7664C8.35117 17.84 8.44705 17.8919 8.5513 17.9167C9.1221 18.0457 9.70635 18.1122 10.293 18.1146C10.7601 18.1098 11.2256 18.0647 11.6863 17.98C11.7956 17.9607 11.8973 17.9112 11.9798 17.837C12.0624 17.7628 12.1225 17.667 12.1534 17.5604L12.5255 16.2225C13.209 15.978 13.8461 15.6193 14.4096 15.1617L15.803 15.4783C15.9075 15.5026 16.0166 15.4977 16.1185 15.4642C16.2204 15.4307 16.3112 15.3699 16.3809 15.2883C17.0748 14.5178 17.6126 13.6198 17.9642 12.6442C17.9926 12.5394 17.9922 12.4289 17.9629 12.3244C17.9337 12.2199 17.8767 12.1252 17.798 12.0504ZM10.3642 13.0558C9.96414 13.0633 9.56657 12.9911 9.19466 12.8435C8.82275 12.6958 8.48394 12.4756 8.19797 12.1957C7.912 11.9158 7.68458 11.5818 7.52896 11.2132C7.37333 10.8445 7.29262 10.4486 7.29152 10.0484C7.29042 9.64829 7.36894 9.25192 7.52253 8.88242C7.67612 8.51291 7.9017 8.17766 8.18612 7.8962C8.47055 7.61473 8.80813 7.39267 9.17922 7.24295C9.55031 7.09323 9.94748 7.01885 10.3476 7.02414C11.1476 7.02204 11.9156 7.33781 12.4827 7.90198C13.0499 8.46615 13.3697 9.23251 13.3718 10.0325C13.3739 10.8324 13.0581 11.6005 12.4939 12.1676C11.9297 12.7347 11.1634 13.0545 10.3634 13.0566" fill="#0B1739"/>
</g>
</svg>
