<svg width="19" height="20" viewBox="0 0 19 20" fill="none" xmlns="http://www.w3.org/2000/svg">
<g id="Frame">
<path id="Vector" d="M17.0288 12.0504L16.0392 11.0054C16.1656 10.2438 16.1495 9.46534 15.9917 8.7096L16.9575 7.6646C17.0325 7.58106 17.0826 7.47823 17.1022 7.3677C17.1218 7.25718 17.11 7.14339 17.0683 7.03918C16.6678 6.04923 16.076 5.148 15.3267 4.3871C15.2534 4.31388 15.1621 4.26139 15.062 4.23497C14.9618 4.20855 14.8565 4.20914 14.7567 4.23668L13.3 4.60876C12.8515 4.28627 12.3649 4.02037 11.8513 3.8171L11.495 2.45543C11.4685 2.34499 11.4101 2.24479 11.3271 2.16735C11.244 2.08991 11.1399 2.03867 11.0279 2.02001C10.5346 1.92744 10.0336 1.88237 9.53167 1.88543C8.90364 1.88806 8.27848 1.97053 7.67125 2.13085C7.56992 2.15632 7.47738 2.20879 7.4035 2.28268C7.32961 2.35656 7.27714 2.44909 7.25167 2.55043L6.87167 3.95168C6.44686 4.14031 6.04345 4.37387 5.66834 4.64835L4.2275 4.2921C4.12634 4.26565 4.0199 4.26715 3.91952 4.29642C3.81914 4.3257 3.72859 4.38166 3.6575 4.45835C2.87041 5.27603 2.26833 6.2534 1.89209 7.32418C1.8556 7.42768 1.84811 7.53918 1.87044 7.64663C1.89277 7.75408 1.94405 7.85337 2.01875 7.93376L3.01625 8.97085C2.96575 9.30365 2.93929 9.63966 2.93709 9.97626C2.93709 10.2138 2.93709 10.4513 2.97667 10.6888L1.93959 11.8446C1.86979 11.9214 1.82137 12.0153 1.79915 12.1167C1.77692 12.2181 1.78167 12.3235 1.81292 12.4225C2.13825 13.4693 2.67741 14.4371 3.39625 15.2646C3.46855 15.3496 3.56334 15.4125 3.66976 15.4461C3.77618 15.4797 3.88991 15.4827 3.99792 15.4546L5.35959 15.1063C5.83604 15.5077 6.36968 15.8359 6.94292 16.08L7.33875 17.4971C7.36925 17.5998 7.42628 17.6927 7.50412 17.7664C7.58195 17.84 7.67783 17.8919 7.78209 17.9167C8.35288 18.0457 8.93713 18.1122 9.52375 18.1146C9.99084 18.1098 10.4563 18.0647 10.9171 17.98C11.0264 17.9607 11.1281 17.9112 11.2106 17.837C11.2932 17.7628 11.3533 17.667 11.3842 17.5604L11.7563 16.2225C12.4398 15.978 13.0769 15.6193 13.6404 15.1617L15.0338 15.4783C15.1382 15.5026 15.2474 15.4977 15.3493 15.4642C15.4512 15.4307 15.542 15.3699 15.6117 15.2883C16.3056 14.5178 16.8434 13.6198 17.195 12.6442C17.2234 12.5394 17.223 12.4289 17.1937 12.3244C17.1644 12.2199 17.1074 12.1252 17.0288 12.0504ZM9.595 13.0558C9.19492 13.0633 8.79735 12.9911 8.42544 12.8435C8.05353 12.6958 7.71473 12.4756 7.42875 12.1957C7.14278 11.9158 6.91536 11.5818 6.75974 11.2132C6.60412 10.8445 6.5234 10.4486 6.5223 10.0484C6.5212 9.64829 6.59973 9.25192 6.75331 8.88242C6.9069 8.51291 7.13248 8.17766 7.4169 7.8962C7.70133 7.61473 8.03892 7.39267 8.41 7.24295C8.78109 7.09323 9.17826 7.01885 9.57838 7.02414C10.3783 7.02204 11.1464 7.33781 11.7135 7.90198C12.2806 8.46615 12.6004 9.23251 12.6025 10.0325C12.6046 10.8324 12.2889 11.6005 11.7247 12.1676C11.1605 12.7347 10.3942 13.0545 9.59421 13.0566" fill="#E8E8E8"/>
</g>
</svg>
