<svg width="16" height="16" viewBox="0 0 16 16" fill="none" xmlns="http://www.w3.org/2000/svg">
<path d="M12.2844 8C12.2848 8.8568 12.0306 9.69441 11.5541 10.4065C11.0776 11.1185 10.4002 11.6729 9.608 11.9993C8.81555 12.3264 7.94395 12.4116 7.10316 12.244C6.26238 12.0763 5.49006 11.6635 4.88364 11.0575C4.27765 10.4515 3.86529 9.67924 3.69887 8.83859C3.53244 7.99795 3.61946 7.12681 3.94887 6.33569C4.27828 5.54457 4.83525 4.86912 5.54912 4.39501C6.26299 3.92091 7.10159 3.66952 7.95855 3.67273C9.10683 3.67274 10.2081 4.12869 11.0204 4.94037C11.4217 5.34227 11.7399 5.81938 11.9567 6.34439C12.1734 6.8694 12.2846 7.432 12.2836 8M1.60218 8.76218H0.763637C0.56136 8.76218 0.367346 8.68193 0.224178 8.53903C0.08101 8.39614 0.00038564 8.20228 3.50338e-07 8C-9.58022e-05 7.89976 0.0196012 7.80049 0.0579614 7.70788C0.0963216 7.61527 0.15259 7.53114 0.223538 7.46033C0.294487 7.38952 0.378719 7.33341 0.471402 7.29522C0.564086 7.25704 0.663396 7.23753 0.763637 7.23782H1.60218C1.80446 7.23782 1.99847 7.31807 2.14164 7.46097C2.28481 7.60386 2.36543 7.79772 2.36582 8C2.36591 8.10024 2.34622 8.19952 2.30786 8.29213C2.2695 8.38474 2.21323 8.46886 2.14228 8.53967C2.07133 8.61049 1.9871 8.66659 1.89442 8.70478C1.80173 8.74296 1.70242 8.76247 1.60218 8.76218ZM15.2364 8.76218H14.4051C14.2029 8.76199 14.0091 8.68165 13.8661 8.53878C13.7231 8.3959 13.6426 8.20215 13.6422 8C13.6421 7.89976 13.6618 7.80049 13.7001 7.70788C13.7385 7.61527 13.7948 7.53114 13.8657 7.46033C13.9367 7.38952 14.0209 7.33341 14.1136 7.29522C14.2063 7.25704 14.3056 7.23753 14.4058 7.23782H15.2371C15.4392 7.23801 15.6331 7.31835 15.7761 7.46123C15.9191 7.6041 15.9996 7.79785 16 8C16.0001 8.10024 15.9804 8.19952 15.942 8.29213C15.9037 8.38474 15.8474 8.46886 15.7765 8.53967C15.7055 8.61049 15.6213 8.66659 15.5286 8.70478C15.4359 8.74296 15.3366 8.76247 15.2364 8.76218ZM7.98909 2.36219C7.78681 2.36219 7.5928 2.28193 7.44963 2.13904C7.30647 1.99614 7.22584 1.80228 7.22546 1.6V0.762187C7.22536 0.661885 7.24508 0.562552 7.28349 0.469894C7.32189 0.377236 7.37822 0.293079 7.44925 0.222256C7.52028 0.151433 7.60459 0.0953403 7.69736 0.0571997C7.79013 0.0190592 7.88952 -0.000377685 7.98982 5.55886e-06C8.19197 0.000197717 8.3858 0.0805373 8.52881 0.223412C8.67182 0.366286 8.75234 0.560036 8.75273 0.762187V1.6C8.75282 1.70025 8.73313 1.79952 8.69477 1.89213C8.65641 1.98474 8.60014 2.06886 8.52919 2.13968C8.45824 2.21049 8.37401 2.2666 8.28133 2.30478C8.18864 2.34297 8.08933 2.36247 7.98909 2.36219ZM7.98909 16C7.78694 16 7.59304 15.9198 7.44989 15.7771C7.30674 15.6344 7.22603 15.4407 7.22546 15.2385V14.4C7.22536 14.2998 7.24506 14.2005 7.28342 14.1079C7.32178 14.0153 7.37805 13.9311 7.44899 13.8603C7.51994 13.7895 7.60417 13.7334 7.69686 13.6952C7.78954 13.657 7.88885 13.6375 7.98909 13.6378C8.19124 13.638 8.38507 13.7183 8.52808 13.8612C8.67109 14.0041 8.75162 14.1978 8.752 14.4V15.2378C8.7521 15.3381 8.7324 15.4373 8.69404 15.5299C8.65568 15.6226 8.59941 15.7067 8.52846 15.7775C8.45751 15.8483 8.37328 15.9044 8.2806 15.9426C8.18792 15.9808 8.08933 16.0003 7.98909 16ZM3.45673 4.23637C3.35581 4.23599 3.25596 4.21562 3.16296 4.17642C3.06996 4.13723 2.98565 4.07998 2.91491 4.008L2.31927 3.42109C2.21184 3.31419 2.13861 3.17775 2.10889 3.02913C2.07918 2.8805 2.09432 2.7264 2.15239 2.5864C2.21046 2.4464 2.30885 2.32683 2.43504 2.24288C2.56123 2.15893 2.70953 2.11438 2.86109 2.11491C3.06473 2.11491 3.25964 2.19564 3.40291 2.33891L3.99855 2.93309C4.14075 3.07582 4.2206 3.26908 4.2206 3.47055C4.2206 3.67202 4.14075 3.86528 3.99855 4.008C3.9278 4.07998 3.8435 4.13723 3.7505 4.17642C3.6575 4.21562 3.55765 4.23599 3.45673 4.23637ZM13.1084 13.8516C12.9081 13.8509 12.7161 13.7715 12.5738 13.6305L11.9789 13.0364C11.8362 12.9165 11.7424 12.7484 11.7153 12.564C11.6882 12.3796 11.7296 12.1917 11.8318 12.0358C11.934 11.8799 12.0898 11.767 12.2697 11.7183C12.4496 11.6696 12.6412 11.6886 12.808 11.7716C12.9025 11.8175 12.9862 11.8822 13.0553 11.9622L13.6502 12.5564C13.7922 12.6991 13.8719 12.8922 13.8719 13.0935C13.8719 13.2947 13.7922 13.4879 13.6502 13.6305C13.5788 13.7012 13.4943 13.7571 13.4013 13.795C13.3083 13.833 13.2088 13.8522 13.1084 13.8516ZM12.5207 4.23637C12.4076 4.2368 12.2958 4.2121 12.1934 4.16405C12.091 4.11601 12.0006 4.04581 11.9286 3.95855C11.8567 3.87128 11.805 3.76912 11.7774 3.65944C11.7497 3.54977 11.7468 3.43532 11.7687 3.32437C11.7978 3.176 11.872 3.04 11.9796 2.93309L12.5745 2.33891C12.7197 2.20439 12.9113 2.13145 13.1092 2.13547C13.307 2.13948 13.4956 2.22013 13.6351 2.36043C13.7747 2.50073 13.8543 2.68972 13.8572 2.88757C13.8602 3.08543 13.7862 3.2767 13.6509 3.42109L13.0545 4.008C12.9136 4.15144 12.7218 4.2335 12.5207 4.23637ZM2.86109 13.8516C2.76068 13.8522 2.66115 13.8329 2.56819 13.795C2.47522 13.7571 2.39064 13.7012 2.31927 13.6305C2.17711 13.4879 2.09728 13.2948 2.09728 13.0935C2.09728 12.8921 2.17711 12.699 2.31927 12.5564L2.91491 11.9622C2.98579 11.8905 3.07017 11.8337 3.16317 11.7949C3.25617 11.756 3.35595 11.7361 3.45673 11.7361C3.5575 11.7361 3.65728 11.756 3.75028 11.7949C3.84329 11.8337 3.92767 11.8905 3.99855 11.9622C4.14053 12.1049 4.22024 12.298 4.22024 12.4993C4.22024 12.7006 4.14053 12.8937 3.99855 13.0364L3.40291 13.6305C3.33159 13.7012 3.24702 13.7572 3.15404 13.7951C3.06106 13.833 2.96151 13.8523 2.86109 13.8516Z" fill="#F7F8FC"/>
</svg>
